<mxfile host="app.diagrams.net" modified="2024-06-10T14:21:45.166Z" agent="Mozilla/5.0 (Windows NT 10.0; Win64; x64) AppleWebKit/537.36 (KHTML, like Gecko) Chrome/125.0.0.0 Safari/537.36" etag="up_iIfmV3keAG8zxRUl2" version="24.5.2" type="device">
  <diagram name="Page-1" id="10oa35LjZVEgKIaJzz4d">
    <mxGraphModel dx="1434" dy="738" grid="1" gridSize="10" guides="1" tooltips="1" connect="1" arrows="1" fold="1" page="1" pageScale="1" pageWidth="827" pageHeight="1169" math="0" shadow="0">
      <root>
        <mxCell id="0" />
        <mxCell id="1" parent="0" />
        <mxCell id="6Y_1e29jp4Fq8hmWVwF4-1" value="" style="verticalLabelPosition=bottom;verticalAlign=top;html=1;shadow=0;dashed=0;strokeWidth=1;shape=mxgraph.android.phone2;strokeColor=#1A1A1A;fillColor=#f5f5f5;gradientColor=#b3b3b3;" vertex="1" parent="1">
          <mxGeometry x="20" y="340" width="20" height="38.25" as="geometry" />
        </mxCell>
        <mxCell id="6Y_1e29jp4Fq8hmWVwF4-2" value="" style="sketch=0;pointerEvents=1;shadow=0;dashed=0;html=1;strokeColor=none;fillColor=#505050;labelPosition=center;verticalLabelPosition=bottom;verticalAlign=top;outlineConnect=0;align=center;shape=mxgraph.office.devices.laptop;" vertex="1" parent="1">
          <mxGeometry x="40" y="345.63" width="40" height="27" as="geometry" />
        </mxCell>
        <mxCell id="6Y_1e29jp4Fq8hmWVwF4-3" value="clients&lt;div&gt;&lt;br&gt;&lt;/div&gt;" style="text;html=1;align=center;verticalAlign=middle;whiteSpace=wrap;rounded=0;" vertex="1" parent="1">
          <mxGeometry x="40" y="380" width="60" height="30" as="geometry" />
        </mxCell>
        <mxCell id="6Y_1e29jp4Fq8hmWVwF4-6" value="internet&lt;div&gt;&lt;br&gt;&lt;/div&gt;" style="text;html=1;align=center;verticalAlign=middle;whiteSpace=wrap;rounded=0;" vertex="1" parent="1">
          <mxGeometry x="110" y="365" width="60" height="30" as="geometry" />
        </mxCell>
        <mxCell id="6Y_1e29jp4Fq8hmWVwF4-34" style="edgeStyle=orthogonalEdgeStyle;rounded=0;orthogonalLoop=1;jettySize=auto;html=1;entryX=0;entryY=0.4;entryDx=0;entryDy=0;entryPerimeter=0;" edge="1" parent="1" source="6Y_1e29jp4Fq8hmWVwF4-7" target="6Y_1e29jp4Fq8hmWVwF4-9">
          <mxGeometry relative="1" as="geometry">
            <mxPoint x="350" y="355" as="targetPoint" />
          </mxGeometry>
        </mxCell>
        <mxCell id="6Y_1e29jp4Fq8hmWVwF4-7" value="" style="sketch=0;points=[[0,0,0],[0.25,0,0],[0.5,0,0],[0.75,0,0],[1,0,0],[0,1,0],[0.25,1,0],[0.5,1,0],[0.75,1,0],[1,1,0],[0,0.25,0],[0,0.5,0],[0,0.75,0],[1,0.25,0],[1,0.5,0],[1,0.75,0]];outlineConnect=0;fontColor=#232F3E;fillColor=#E7157B;strokeColor=#ffffff;dashed=0;verticalLabelPosition=bottom;verticalAlign=top;align=center;html=1;fontSize=12;fontStyle=0;aspect=fixed;shape=mxgraph.aws4.resourceIcon;resIcon=mxgraph.aws4.api_gateway;" vertex="1" parent="1">
          <mxGeometry x="230" y="340" width="30" height="30" as="geometry" />
        </mxCell>
        <mxCell id="6Y_1e29jp4Fq8hmWVwF4-8" value="Amazon API Gateway" style="text;html=1;align=center;verticalAlign=middle;whiteSpace=wrap;rounded=0;" vertex="1" parent="1">
          <mxGeometry x="215" y="381" width="60" height="30" as="geometry" />
        </mxCell>
        <mxCell id="6Y_1e29jp4Fq8hmWVwF4-35" style="edgeStyle=orthogonalEdgeStyle;rounded=0;orthogonalLoop=1;jettySize=auto;html=1;entryX=0;entryY=0.438;entryDx=0;entryDy=0;entryPerimeter=0;" edge="1" parent="1" source="6Y_1e29jp4Fq8hmWVwF4-9" target="6Y_1e29jp4Fq8hmWVwF4-18">
          <mxGeometry relative="1" as="geometry">
            <mxPoint x="500" y="358" as="targetPoint" />
          </mxGeometry>
        </mxCell>
        <mxCell id="6Y_1e29jp4Fq8hmWVwF4-9" value="" style="sketch=0;outlineConnect=0;fontColor=#232F3E;gradientColor=none;fillColor=#8C4FFF;strokeColor=none;dashed=0;verticalLabelPosition=bottom;verticalAlign=top;align=center;html=1;fontSize=12;fontStyle=0;aspect=fixed;pointerEvents=1;shape=mxgraph.aws4.network_load_balancer;" vertex="1" parent="1">
          <mxGeometry x="360" y="343" width="30" height="30" as="geometry" />
        </mxCell>
        <mxCell id="6Y_1e29jp4Fq8hmWVwF4-17" value="Network Load Balancer" style="text;html=1;align=center;verticalAlign=middle;whiteSpace=wrap;rounded=0;" vertex="1" parent="1">
          <mxGeometry x="345" y="378.25" width="60" height="30" as="geometry" />
        </mxCell>
        <mxCell id="6Y_1e29jp4Fq8hmWVwF4-18" value="" style="sketch=0;outlineConnect=0;fontColor=#232F3E;gradientColor=none;fillColor=#8C4FFF;strokeColor=none;dashed=0;verticalLabelPosition=bottom;verticalAlign=top;align=center;html=1;fontSize=12;fontStyle=0;aspect=fixed;pointerEvents=1;shape=mxgraph.aws4.endpoints;" vertex="1" parent="1">
          <mxGeometry x="512" y="341.13" width="38" height="38" as="geometry" />
        </mxCell>
        <mxCell id="6Y_1e29jp4Fq8hmWVwF4-19" value="AWS AppSync interface Enpoint" style="text;html=1;align=center;verticalAlign=middle;whiteSpace=wrap;rounded=0;" vertex="1" parent="1">
          <mxGeometry x="498" y="290" width="60" height="30" as="geometry" />
        </mxCell>
        <mxCell id="6Y_1e29jp4Fq8hmWVwF4-21" value="" style="sketch=0;outlineConnect=0;fontColor=#232F3E;gradientColor=none;fillColor=#8C4FFF;strokeColor=none;dashed=0;verticalLabelPosition=bottom;verticalAlign=top;align=center;html=1;fontSize=12;fontStyle=0;aspect=fixed;pointerEvents=1;shape=mxgraph.aws4.elastic_network_interface;" vertex="1" parent="1">
          <mxGeometry x="430" y="490" width="35" height="35" as="geometry" />
        </mxCell>
        <mxCell id="6Y_1e29jp4Fq8hmWVwF4-23" value="" style="sketch=0;outlineConnect=0;fontColor=#232F3E;gradientColor=none;fillColor=#8C4FFF;strokeColor=none;dashed=0;verticalLabelPosition=bottom;verticalAlign=top;align=center;html=1;fontSize=12;fontStyle=0;aspect=fixed;pointerEvents=1;shape=mxgraph.aws4.elastic_network_interface;" vertex="1" parent="1">
          <mxGeometry x="590" y="490" width="35" height="35" as="geometry" />
        </mxCell>
        <mxCell id="6Y_1e29jp4Fq8hmWVwF4-24" value="" style="sketch=0;points=[[0,0,0],[0.25,0,0],[0.5,0,0],[0.75,0,0],[1,0,0],[0,1,0],[0.25,1,0],[0.5,1,0],[0.75,1,0],[1,1,0],[0,0.25,0],[0,0.5,0],[0,0.75,0],[1,0.25,0],[1,0.5,0],[1,0.75,0]];outlineConnect=0;fontColor=#232F3E;fillColor=#E7157B;strokeColor=#ffffff;dashed=0;verticalLabelPosition=bottom;verticalAlign=top;align=center;html=1;fontSize=12;fontStyle=0;aspect=fixed;shape=mxgraph.aws4.resourceIcon;resIcon=mxgraph.aws4.appsync;" vertex="1" parent="1">
          <mxGeometry x="720" y="160" width="40" height="40" as="geometry" />
        </mxCell>
        <mxCell id="6Y_1e29jp4Fq8hmWVwF4-25" value="AWS AppSync" style="text;html=1;align=center;verticalAlign=middle;whiteSpace=wrap;rounded=0;" vertex="1" parent="1">
          <mxGeometry x="710" y="210" width="60" height="30" as="geometry" />
        </mxCell>
        <mxCell id="6Y_1e29jp4Fq8hmWVwF4-38" style="edgeStyle=orthogonalEdgeStyle;rounded=0;orthogonalLoop=1;jettySize=auto;html=1;exitX=0.5;exitY=0;exitDx=0;exitDy=0;exitPerimeter=0;entryX=0.5;entryY=1;entryDx=0;entryDy=0;" edge="1" parent="1" source="6Y_1e29jp4Fq8hmWVwF4-26" target="6Y_1e29jp4Fq8hmWVwF4-25">
          <mxGeometry relative="1" as="geometry" />
        </mxCell>
        <mxCell id="6Y_1e29jp4Fq8hmWVwF4-26" value="" style="sketch=0;points=[[0,0,0],[0.25,0,0],[0.5,0,0],[0.75,0,0],[1,0,0],[0,1,0],[0.25,1,0],[0.5,1,0],[0.75,1,0],[1,1,0],[0,0.25,0],[0,0.5,0],[0,0.75,0],[1,0.25,0],[1,0.5,0],[1,0.75,0]];outlineConnect=0;fontColor=#232F3E;fillColor=#8C4FFF;strokeColor=#ffffff;dashed=0;verticalLabelPosition=bottom;verticalAlign=top;align=center;html=1;fontSize=12;fontStyle=0;aspect=fixed;shape=mxgraph.aws4.resourceIcon;resIcon=mxgraph.aws4.vpc_privatelink;" vertex="1" parent="1">
          <mxGeometry x="720" y="340" width="41" height="41" as="geometry" />
        </mxCell>
        <mxCell id="6Y_1e29jp4Fq8hmWVwF4-27" value="AWS PrivateLink" style="text;html=1;align=center;verticalAlign=middle;whiteSpace=wrap;rounded=0;" vertex="1" parent="1">
          <mxGeometry x="710" y="391" width="60" height="30" as="geometry" />
        </mxCell>
        <mxCell id="6Y_1e29jp4Fq8hmWVwF4-28" value="Elastic Network Interfaces" style="text;html=1;align=center;verticalAlign=middle;whiteSpace=wrap;rounded=0;" vertex="1" parent="1">
          <mxGeometry x="361" y="530" width="340" height="30" as="geometry" />
        </mxCell>
        <mxCell id="6Y_1e29jp4Fq8hmWVwF4-31" value="" style="sketch=0;aspect=fixed;pointerEvents=1;shadow=0;dashed=0;html=1;strokeColor=#666666;labelPosition=center;verticalLabelPosition=bottom;verticalAlign=top;align=center;fillColor=#f5f5f5;shape=mxgraph.mscae.enterprise.internet_hollow;gradientColor=#b3b3b3;" vertex="1" parent="1">
          <mxGeometry x="109.99999999999999" y="320" width="55.63" height="34.49" as="geometry" />
        </mxCell>
        <mxCell id="6Y_1e29jp4Fq8hmWVwF4-37" style="edgeStyle=orthogonalEdgeStyle;rounded=0;orthogonalLoop=1;jettySize=auto;html=1;entryX=0;entryY=0.5;entryDx=0;entryDy=0;entryPerimeter=0;" edge="1" parent="1" source="6Y_1e29jp4Fq8hmWVwF4-18" target="6Y_1e29jp4Fq8hmWVwF4-26">
          <mxGeometry relative="1" as="geometry" />
        </mxCell>
        <mxCell id="6Y_1e29jp4Fq8hmWVwF4-42" style="edgeStyle=orthogonalEdgeStyle;rounded=0;orthogonalLoop=1;jettySize=auto;html=1;" edge="1" parent="1" source="6Y_1e29jp4Fq8hmWVwF4-2">
          <mxGeometry relative="1" as="geometry">
            <mxPoint x="230" y="358" as="targetPoint" />
          </mxGeometry>
        </mxCell>
        <mxCell id="6Y_1e29jp4Fq8hmWVwF4-52" value="" style="sketch=0;outlineConnect=0;fontColor=#232F3E;gradientColor=none;fillColor=#8C4FFF;strokeColor=none;dashed=0;verticalLabelPosition=bottom;verticalAlign=top;align=center;html=1;fontSize=12;fontStyle=0;aspect=fixed;pointerEvents=1;shape=mxgraph.aws4.elastic_network_interface;" vertex="1" parent="1">
          <mxGeometry x="513.5" y="490" width="35" height="35" as="geometry" />
        </mxCell>
        <mxCell id="6Y_1e29jp4Fq8hmWVwF4-79" style="edgeStyle=orthogonalEdgeStyle;rounded=0;orthogonalLoop=1;jettySize=auto;html=1;elbow=vertical;" edge="1" parent="1" source="6Y_1e29jp4Fq8hmWVwF4-74" target="6Y_1e29jp4Fq8hmWVwF4-52">
          <mxGeometry relative="1" as="geometry" />
        </mxCell>
        <mxCell id="6Y_1e29jp4Fq8hmWVwF4-74" value="" style="shape=waypoint;sketch=0;fillStyle=solid;size=6;pointerEvents=1;points=[];fillColor=none;resizable=0;rotatable=0;perimeter=centerPerimeter;snapToPoint=1;" vertex="1" parent="1">
          <mxGeometry x="521" y="420" width="20" height="20" as="geometry" />
        </mxCell>
        <mxCell id="6Y_1e29jp4Fq8hmWVwF4-81" style="edgeStyle=orthogonalEdgeStyle;rounded=0;orthogonalLoop=1;jettySize=auto;html=1;elbow=vertical;" edge="1" parent="1" source="6Y_1e29jp4Fq8hmWVwF4-75" target="6Y_1e29jp4Fq8hmWVwF4-23">
          <mxGeometry relative="1" as="geometry" />
        </mxCell>
        <mxCell id="6Y_1e29jp4Fq8hmWVwF4-75" value="" style="shape=waypoint;sketch=0;fillStyle=solid;size=6;pointerEvents=1;points=[];fillColor=none;resizable=0;rotatable=0;perimeter=centerPerimeter;snapToPoint=1;" vertex="1" parent="1">
          <mxGeometry x="597.5" y="421" width="20" height="20" as="geometry" />
        </mxCell>
        <mxCell id="6Y_1e29jp4Fq8hmWVwF4-77" style="edgeStyle=orthogonalEdgeStyle;rounded=0;orthogonalLoop=1;jettySize=auto;html=1;entryX=0.4;entryY=0.2;entryDx=0;entryDy=0;entryPerimeter=0;elbow=vertical;" edge="1" parent="1" source="6Y_1e29jp4Fq8hmWVwF4-18" target="6Y_1e29jp4Fq8hmWVwF4-74">
          <mxGeometry relative="1" as="geometry" />
        </mxCell>
        <mxCell id="6Y_1e29jp4Fq8hmWVwF4-96" style="edgeStyle=orthogonalEdgeStyle;rounded=0;orthogonalLoop=1;jettySize=auto;html=1;elbow=vertical;" edge="1" parent="1" source="6Y_1e29jp4Fq8hmWVwF4-74">
          <mxGeometry relative="1" as="geometry">
            <mxPoint x="610" y="430" as="targetPoint" />
            <Array as="points">
              <mxPoint x="569" y="430" />
            </Array>
          </mxGeometry>
        </mxCell>
        <mxCell id="6Y_1e29jp4Fq8hmWVwF4-108" style="edgeStyle=orthogonalEdgeStyle;rounded=0;orthogonalLoop=1;jettySize=auto;html=1;elbow=vertical;" edge="1" parent="1" source="6Y_1e29jp4Fq8hmWVwF4-106" target="6Y_1e29jp4Fq8hmWVwF4-21">
          <mxGeometry relative="1" as="geometry" />
        </mxCell>
        <mxCell id="6Y_1e29jp4Fq8hmWVwF4-106" value="" style="shape=waypoint;sketch=0;fillStyle=solid;size=6;pointerEvents=1;points=[];fillColor=none;resizable=0;rotatable=0;perimeter=centerPerimeter;snapToPoint=1;" vertex="1" parent="1">
          <mxGeometry x="437.5" y="420" width="20" height="20" as="geometry" />
        </mxCell>
        <mxCell id="6Y_1e29jp4Fq8hmWVwF4-107" style="edgeStyle=orthogonalEdgeStyle;rounded=0;orthogonalLoop=1;jettySize=auto;html=1;entryX=1.175;entryY=0.6;entryDx=0;entryDy=0;entryPerimeter=0;elbow=vertical;" edge="1" parent="1" source="6Y_1e29jp4Fq8hmWVwF4-74" target="6Y_1e29jp4Fq8hmWVwF4-106">
          <mxGeometry relative="1" as="geometry" />
        </mxCell>
        <mxCell id="6Y_1e29jp4Fq8hmWVwF4-109" value="Customer vpc" style="points=[[0,0],[0.25,0],[0.5,0],[0.75,0],[1,0],[1,0.25],[1,0.5],[1,0.75],[1,1],[0.75,1],[0.5,1],[0.25,1],[0,1],[0,0.75],[0,0.5],[0,0.25]];outlineConnect=0;gradientColor=none;html=1;whiteSpace=wrap;fontSize=12;fontStyle=0;container=1;pointerEvents=0;collapsible=0;recursiveResize=0;shape=mxgraph.aws4.group;grIcon=mxgraph.aws4.group_vpc2;strokeColor=#8C4FFF;fillColor=none;verticalAlign=top;align=left;spacingLeft=30;fontColor=#AAB7B8;dashed=0;" vertex="1" parent="1">
          <mxGeometry x="320" y="160" width="360" height="440" as="geometry" />
        </mxCell>
        <mxCell id="6Y_1e29jp4Fq8hmWVwF4-114" value="" style="shape=image;html=1;verticalAlign=top;verticalLabelPosition=bottom;labelBackgroundColor=#ffffff;imageAspect=0;aspect=fixed;image=https://cdn2.iconfinder.com/data/icons/arrow-part-1-2/32/Arrow_02_arrow-data-transfer-vertical-sync_icon-128.png" vertex="1" parent="1">
          <mxGeometry x="130.77" y="328.01" width="18.47" height="18.47" as="geometry" />
        </mxCell>
        <mxCell id="6Y_1e29jp4Fq8hmWVwF4-116" value="VPC Link" style="text;html=1;align=center;verticalAlign=middle;whiteSpace=wrap;rounded=0;" vertex="1" parent="1">
          <mxGeometry x="250" y="290" width="60" height="20" as="geometry" />
        </mxCell>
        <mxCell id="6Y_1e29jp4Fq8hmWVwF4-121" value="" style="shape=mxgraph.ibm.box;prType=region;fontStyle=0;verticalAlign=top;align=left;spacingLeft=32;spacingTop=4;fillColor=none;rounded=0;whiteSpace=wrap;html=1;strokeColor=#919191;strokeWidth=2;dashed=0;container=1;spacing=-4;collapsible=0;expand=0;recursiveResize=0;" vertex="1" parent="1">
          <mxGeometry x="200" y="120" width="600" height="520" as="geometry" />
        </mxCell>
        <mxCell id="6Y_1e29jp4Fq8hmWVwF4-123" value="Region" style="text;html=1;align=center;verticalAlign=middle;whiteSpace=wrap;rounded=0;" vertex="1" parent="6Y_1e29jp4Fq8hmWVwF4-121">
          <mxGeometry x="20" width="60" height="30" as="geometry" />
        </mxCell>
        <mxCell id="6Y_1e29jp4Fq8hmWVwF4-124" value="AppSync Private API&#39;s with API Gateway" style="text;strokeColor=none;fillColor=none;html=1;fontSize=24;fontStyle=1;verticalAlign=middle;align=center;" vertex="1" parent="1">
          <mxGeometry x="414" width="16" height="40" as="geometry" />
        </mxCell>
      </root>
    </mxGraphModel>
  </diagram>
</mxfile>
